# xmcd CD database file
#
# Track frame offsets:
#	150
#	24283
#	49469
#	64431
#	93365
#	109224
#	124693
#	148487
#	163097
#	187310
#	207628
#	226807
#
# Disc length: 3324 seconds
#
# Revision: 0
# Processed by: cddbd v1.5.1PL2 Copyright (c) Steve Scherf et al.
# Submitted via: CDex 1.51
#
DISCID=bc0cfa0c
DTITLE=Bill Ramsey - Big Band Boogie
DYEAR=2002
DGENRE=Jazz
TTITLE0=St. Louis Blues
TTITLE1=The Midnight Sun Will Never Set
TTITLE2=Caledonia
TTITLE3=It's The Little Things That Count
TTITLE4=Just The Way You Are
TTITLE5=C. C. Rider
TTITLE6=Three Times A Lady
TTITLE7=Take Another Step
TTITLE8=I'd Rather Be A Gambler
TTITLE9=Where Or When
TTITLE10=Bill's Big Band Boogie
TTITLE11=You've Got A Friend
EXTD=YEAR: 2002
EXTT0=
EXTT1=
EXTT2=
EXTT3=
EXTT4=
EXTT5=
EXTT6=
EXTT7=
EXTT8=
EXTT9=
EXTT10=
EXTT11=
PLAYORDER=
